<?xml version="1.0" encoding="utf-8"?>
<!-- Generator: Adobe Illustrator 21.0.0, SVG Export Plug-In . SVG Version: 6.00 Build 0)  -->
<svg version="1.1" id="Capa_1" xmlns="http://www.w3.org/2000/svg" xmlns:xlink="http://www.w3.org/1999/xlink" x="0px" y="0px"
	 viewBox="0 0 99 99" style="enable-background:new 0 0 99 99;" xml:space="preserve">
<style type="text/css">
	.st0{fill:#CCCCCC;}
	.st1{fill:#B3B3B3;}
	.st2{fill:#ED7161;}
</style>
<path class="st0" d="M92.8,86.6c0,1.7-1.4,3.1-3.1,3.1H77.4v6.2h15.5c3.4,0,6.2-2.8,6.2-6.2V77.3h-6.2V86.6z"/>
<path class="st0" d="M6.2,86.6v-9.3H0v12.4c0,3.4,2.8,6.2,6.2,6.2h15.5v-6.2H9.3C7.6,89.7,6.2,88.3,6.2,86.6z"/>
<path class="st0" d="M92.8,3.1H6.2C2.8,3.1,0,5.9,0,9.3v12.4h6.2v-9.3c0-1.7,1.4-3.1,3.1-3.1h12.4V3.1h55.7v6.2h12.4
	c1.7,0,3.1,1.4,3.1,3.1v9.3H99V9.3C99,5.9,96.2,3.1,92.8,3.1z"/>
<g id="Focus">
	<g>
		<path class="st1" d="M55.7,25.5V32c7.3,2.5,12.4,9.4,12.4,17.5S63,64.5,55.7,67v6.5c10.7-2.8,18.6-12.4,18.6-24
			S66.4,28.3,55.7,25.5z M24.8,49.5c0,11.6,7.9,21.2,18.6,24V67c-7.3-2.5-12.4-9.4-12.4-17.5S36,34.5,43.3,32v-6.5
			C32.6,28.3,24.8,37.9,24.8,49.5z"/>
	</g>
</g>
<g id="Focus_1_">
	<g>
		<circle class="st2" cx="49.5" cy="49.5" r="6.2"/>
	</g>
</g>
</svg>
